<svg width="100" height="50" viewBox="0 0 100 50" fill="none" xmlns="http://www.w3.org/2000/svg">
<path d="M96.7615 50H66.5405C66.0319 49.9999 65.5305 49.8798 65.077 49.6495C64.6235 49.4193 64.2307 49.0854 63.9304 48.6749L60.0086 43.3026L51.62 31.8163L49.9699 29.5577L45.8265 23.8904L45.8431 23.867L43.4414 20.5817L43.4214 20.5967L37.0328 11.849C36.8023 11.5329 36.5004 11.2756 36.1517 11.0983C35.803 10.921 35.4173 10.8285 35.0261 10.8285C34.6349 10.8285 34.2492 10.921 33.9004 11.0983C33.5517 11.2756 33.2498 11.5329 33.0194 11.849L30.8843 14.7727L11.4953 41.3324C11.3602 41.5176 11.279 41.7366 11.2604 41.9651C11.2419 42.1937 11.2868 42.4229 11.3903 42.6275C11.4937 42.8321 11.6516 43.0042 11.8466 43.1248C12.0416 43.2454 12.2661 43.3098 12.4953 43.3109H30.3693C30.7591 43.3098 31.1433 43.2171 31.4907 43.0402C31.8381 42.8633 32.1391 42.6071 32.3693 42.2925L39.6729 32.3013C39.9036 31.9858 40.2055 31.7292 40.5541 31.5523C40.9026 31.3753 41.2879 31.2831 41.6788 31.2831C42.0697 31.2831 42.455 31.3753 42.8036 31.5523C43.1521 31.7292 43.454 31.9858 43.6847 32.3013L44.7514 33.7598C45.0633 34.1862 45.2314 34.7008 45.2314 35.2292C45.2314 35.7575 45.0633 36.2721 44.7514 36.6985L39.9179 43.3126L35.9961 48.6765C35.6956 49.0871 35.3024 49.4209 34.8486 49.6508C34.3948 49.8808 33.8931 50.0004 33.3844 50H3.23167C2.63468 49.9997 2.04943 49.8341 1.54077 49.5215C1.03212 49.209 0.619912 48.7617 0.349828 48.2293C0.0797439 47.6968 -0.0376754 47.1 0.0105831 46.5049C0.0588416 45.9098 0.270892 45.3397 0.623239 44.8577L1.75828 43.3026L14.6621 25.6456L26.7491 9.09371L30.8909 3.4264L32.4243 1.32617C32.7241 0.915287 33.1167 0.581014 33.5701 0.350564C34.0236 0.120115 34.525 0 35.0336 0C35.5422 0 36.0436 0.120115 36.497 0.350564C36.9504 0.581014 37.343 0.915287 37.6428 1.32617L47.6049 14.966L49.9799 18.2181L54.1234 23.8854L55.5301 25.8089L67.5472 42.2825C67.777 42.5976 68.0779 42.8542 68.4254 43.0315C68.7729 43.2087 69.1572 43.3016 69.5473 43.3026H87.4979C87.726 43.301 87.9493 43.2366 88.1432 43.1166C88.3372 42.9965 88.4945 42.8254 88.5977 42.622C88.701 42.4185 88.7463 42.1906 88.7287 41.9632C88.7111 41.7357 88.6312 41.5175 88.4979 41.3324L66.9389 11.839C66.7083 11.5232 66.4065 11.2663 66.0579 11.0891C65.7094 10.912 65.3239 10.8197 64.9329 10.8197C64.542 10.8197 64.1565 10.912 63.8079 11.0891C63.4594 11.2663 63.1576 11.5232 62.927 11.839L60.2786 15.4611C60.0479 15.7769 59.746 16.0339 59.3973 16.211C59.0486 16.3881 58.663 16.4804 58.2719 16.4804C57.8808 16.4804 57.4952 16.3881 57.1465 16.211C56.7978 16.0339 56.4958 15.7769 56.2651 15.4611L55.2001 13.9959C54.8882 13.5695 54.7201 13.0549 54.7201 12.5266C54.7201 11.9983 54.8882 11.4837 55.2001 11.0573L62.3304 1.32783C62.6302 0.917277 63.0227 0.583294 63.476 0.353052C63.9292 0.12281 64.4304 0.00281048 64.9388 0.00281048C65.4472 0.00281048 65.9483 0.12281 66.4016 0.353052C66.8548 0.583294 67.2473 0.917277 67.5472 1.32783L99.3816 44.8644C99.7327 45.3472 99.9432 45.9177 99.99 46.5128C100.037 47.1078 99.918 47.7043 99.6468 48.236C99.3755 48.7677 98.9624 49.2139 98.4531 49.5253C97.9439 49.8366 97.3584 50.0009 96.7615 50Z" fill="url(#paint0_linear_786_559)"/>
<defs>
<linearGradient id="paint0_linear_786_559" x1="21.6756" y1="10.2122" x2="72.7838" y2="71.1134" gradientUnits="userSpaceOnUse">
<stop stop-color="#AA14F0"/>
<stop offset="1" stop-color="#29ABE2"/>
</linearGradient>
</defs>
</svg>
