<svg width="6" height="11" viewBox="0 0 6 11" fill="none" xmlns="http://www.w3.org/2000/svg">
<path d="M2.35575 10.8441C2.32661 10.8139 2.20518 10.7084 2.10804 10.608C1.31007 9.75379 0.65367 8.76945 0.165223 7.69452C0.083836 7.50582 0.0282722 7.30633 9.99465e-05 7.10178C-0.000898371 6.94427 0.0357971 6.78897 0.106941 6.6497C0.206931 6.47168 0.360445 6.33233 0.544086 6.25287C0.714906 6.20096 0.888389 6.15903 1.06376 6.12729C1.67457 6.03273 2.29194 5.99073 2.90946 6.00171C3.50863 5.99566 4.10746 6.03259 4.70168 6.11222C4.92105 6.15136 5.13709 6.20846 5.34771 6.283C5.49154 6.35614 5.61299 6.46897 5.69871 6.60903C5.78442 6.74909 5.83106 6.91093 5.83341 7.07667C5.79963 7.30678 5.73248 7.53031 5.63426 7.73973C5.13827 8.79056 4.48231 9.75219 3.69144 10.5879C3.6053 10.6735 3.51452 10.7541 3.41948 10.829C3.27126 10.9441 3.08989 11.0042 2.9046 10.9998C2.70582 11.0041 2.51119 10.9406 2.35089 10.8189" fill="#ABADB4"/>
<path d="M3.47766 0.155947C3.5068 0.186086 3.62823 0.291573 3.72537 0.392037C4.52334 1.24621 5.17974 2.23055 5.66819 3.30548C5.74958 3.49418 5.80514 3.69367 5.83331 3.89822C5.83431 4.05573 5.79762 4.21103 5.72647 4.3503C5.62648 4.52832 5.47297 4.66767 5.28933 4.74713C5.11851 4.79904 4.94503 4.84097 4.76965 4.87271C4.15884 4.96727 3.54147 5.00927 2.92395 4.99829C2.32478 5.00434 1.72596 4.96741 1.13173 4.88778C0.912366 4.84864 0.696319 4.79153 0.485705 4.717C0.341877 4.64386 0.220421 4.53103 0.134708 4.39097C0.0489941 4.25091 0.00235852 4.08907 5.70962e-07 3.92333C0.0337831 3.69322 0.100934 3.46969 0.199156 3.26027C0.695141 2.20944 1.3511 1.24781 2.14197 0.41213C2.22811 0.326451 2.31889 0.245947 2.41394 0.171015C2.56216 0.0559422 2.74353 -0.00421217 2.92881 0.000229582C3.12759 -0.0041492 3.32222 0.0594137 3.48252 0.181064" fill="#ABADB4"/>
</svg>
