<svg width="28" height="28" viewBox="0 0 28 28" fill="none" xmlns="http://www.w3.org/2000/svg">
<path d="M13.989 27.8305C10.789 27.8279 7.68886 26.7158 5.21692 24.6836C2.74497 22.6515 1.05422 19.825 0.432764 16.6859C-0.188688 13.5468 0.297635 10.2893 1.80885 7.46856C3.32006 4.64784 5.76265 2.43843 8.72035 1.21686C11.6781 -0.00471033 14.9678 -0.162845 18.0291 0.769398C21.0903 1.70164 23.7335 3.66658 25.5083 6.32934C27.2831 8.99211 28.0797 12.1879 27.7622 15.3722C27.4447 18.5564 26.0328 21.532 23.7672 23.792C21.1718 26.3808 17.6548 27.8333 13.989 27.8305ZM13.505 6.98792C13.231 6.99151 12.9692 7.10194 12.7755 7.2957C12.5817 7.48946 12.4713 7.75122 12.4677 8.02521V14.9405C12.4665 15.1202 12.5133 15.297 12.6032 15.4526C12.6932 15.6082 12.8231 15.737 12.9794 15.8256L18.401 19.0619C18.5149 19.1311 18.6415 19.1767 18.7733 19.1961C18.9052 19.2154 19.0396 19.2081 19.1685 19.1746C19.2975 19.1411 19.4184 19.082 19.5242 19.0009C19.6299 18.9198 19.7183 18.8182 19.784 18.7023C19.9094 18.4689 19.9421 18.1968 19.8754 17.9403C19.8087 17.6839 19.6476 17.4621 19.4244 17.3193L14.5008 14.3872V7.99754C14.4908 7.73533 14.383 7.48634 14.1988 7.29952C14.0145 7.11269 13.767 7.00154 13.505 6.98792Z" fill="url(#paint0_linear_177_894)"/>
<defs>
<linearGradient id="paint0_linear_177_894" x1="13.9999" y1="0.169495" x2="13.9999" y2="37.7712" gradientUnits="userSpaceOnUse">
<stop stop-color="#AA14F0"/>
<stop offset="1" stop-color="#AA14F0"/>
</linearGradient>
</defs>
</svg>
