<svg width="53" height="101" viewBox="0 0 53 101" fill="none" xmlns="http://www.w3.org/2000/svg">
<path d="M0.73017 97.0602L1.55687 66.8504C1.57094 66.342 1.70468 65.8441 1.94724 65.3971C2.1898 64.9501 2.53435 64.5665 2.95293 64.2776L8.43047 60.5042L20.1419 52.4329L22.4448 50.8453L28.2234 46.8584L28.2462 46.8757L31.5961 44.5647L31.5816 44.5443L40.5008 38.3974C40.8231 38.1757 41.0885 37.8809 41.2753 37.5372C41.4621 37.1935 41.5651 36.8104 41.5758 36.4194C41.5865 36.0283 41.5046 35.6402 41.3369 35.2868C41.1692 34.9333 40.9203 34.6245 40.6106 34.3855L37.7464 32.1712L11.7271 12.0629C11.5455 11.9229 11.3289 11.8356 11.1009 11.8109C10.873 11.7861 10.6426 11.8247 10.4353 11.9225C10.2279 12.0203 10.0516 12.1734 9.92568 12.3651C9.7998 12.5567 9.72927 12.7793 9.72188 13.0085L9.23293 30.8757C9.22335 31.2655 9.30554 31.652 9.47289 32.0042C9.64023 32.3563 9.88803 32.6642 10.1963 32.9029L19.9839 40.4771C20.293 40.7163 20.5413 41.0251 20.7086 41.3784C20.8759 41.7316 20.9575 42.1193 20.9468 42.5101C20.9361 42.9008 20.8334 43.2835 20.647 43.627C20.4607 43.9706 20.1959 44.2654 19.8741 44.4874L18.387 45.5138C17.9522 45.8139 17.4332 45.9679 16.9051 45.9534C16.377 45.939 15.8672 45.7568 15.4494 45.4334L8.97006 40.4208L3.71541 36.3537C3.31325 36.042 2.99031 35.6399 2.77284 35.18C2.55538 34.72 2.44952 34.2153 2.46387 33.7067L3.2887 3.5653C3.30536 2.96854 3.48693 2.38804 3.81327 1.88813C4.13961 1.38821 4.59799 0.988396 5.13762 0.732978C5.67726 0.47756 6.27707 0.376511 6.87061 0.44103C7.46416 0.505549 8.02825 0.733115 8.50039 1.09851L10.0239 2.27567L27.3213 15.6576L43.5364 28.193L49.0882 32.4883L51.1457 34.0785C51.5483 34.3895 51.8717 34.791 52.0896 35.2506C52.3076 35.7101 52.414 36.2147 52.4 36.7231C52.3861 37.2315 52.2523 37.7294 52.0096 38.1764C51.7668 38.6233 51.4219 39.0066 51.003 39.2951L37.0957 48.8802L33.7799 51.1655L28.0014 55.1524L26.0401 56.5059L9.24399 68.0679C8.92264 68.289 8.65791 68.5827 8.47125 68.9252C8.28458 69.2677 8.18121 69.6494 8.16954 70.0393L7.6785 87.9832C7.67388 88.2113 7.73211 88.4362 7.8468 88.6334C7.96149 88.8306 8.12823 88.9925 8.32876 89.1013C8.52929 89.21 8.75589 89.2616 8.98374 89.2502C9.2116 89.2388 9.43193 89.165 9.62063 89.0367L39.6927 68.2925C40.0147 68.0708 40.2798 67.7761 40.4664 67.4325C40.653 67.0889 40.7558 66.7061 40.7665 66.3153C40.7772 65.9244 40.6955 65.5366 40.5279 65.1833C40.3604 64.83 40.1118 64.5213 39.8024 64.2822L36.2541 61.5357C35.9447 61.2965 35.6962 60.9876 35.5286 60.6342C35.3611 60.2808 35.2794 59.8928 35.2901 59.5019C35.3008 59.1109 35.4036 58.728 35.5902 58.3843C35.7768 58.0406 36.0419 57.7457 36.3639 57.5238L37.8577 56.4992C38.2925 56.1991 38.8115 56.0451 39.3396 56.0595C39.8677 56.074 40.3775 56.2561 40.7953 56.5796L50.326 63.9733C50.7282 64.2843 51.0513 64.6858 51.2691 65.1452C51.4868 65.6045 51.5931 66.1088 51.5792 66.617C51.5653 67.1252 51.4316 67.6229 51.189 68.0697C50.9465 68.5165 50.6019 68.8997 50.1833 69.1882L5.79215 99.8197C5.29997 100.157 4.72391 100.352 4.12778 100.383C3.53164 100.413 2.9387 100.278 2.41462 99.9926C1.89053 99.7069 1.45576 99.2817 1.15845 98.7641C0.861149 98.2465 0.712915 97.6568 0.73017 97.0602V97.0602Z" fill="url(#paint0_linear_180_171)"/>
<defs>
<linearGradient id="paint0_linear_180_171" x1="42.5571" y1="23.0908" x2="-19.7194" y2="72.5138" gradientUnits="userSpaceOnUse">
<stop stop-color="#AA14F0"/>
<stop offset="1" stop-color="#29ABE2"/>
</linearGradient>
</defs>
</svg>
