<svg width="28" height="68" viewBox="0 0 28 68" fill="none" xmlns="http://www.w3.org/2000/svg">
<path d="M0.849615 65.562L1.05746 45.3183C1.06103 44.9777 1.12733 44.6424 1.25097 44.3399C1.37461 44.0374 1.55211 43.776 1.76906 43.5771L4.60817 40.9789L10.6784 35.4215L11.872 34.3284L14.8671 31.5833L14.8792 31.5946L16.6154 30.0034L16.6077 29.9899L21.2306 25.7576C21.3977 25.6049 21.5344 25.404 21.6297 25.1714C21.7249 24.9387 21.7759 24.6809 21.7786 24.4188C21.7813 24.1568 21.7356 23.8979 21.6452 23.6634C21.5547 23.4288 21.4222 23.2252 21.2582 23.0691L19.7425 21.6232L5.97313 8.49271C5.87707 8.40126 5.76301 8.34564 5.64351 8.332C5.52402 8.31836 5.40373 8.34722 5.29591 8.4154C5.18809 8.48358 5.09692 8.58843 5.03245 8.71839C4.96799 8.84836 4.93273 8.99839 4.93057 9.15195L4.80764 21.1249C4.80553 21.386 4.85143 21.6439 4.94165 21.8775C5.03186 22.1112 5.16387 22.3142 5.327 22.4701L10.5067 27.4161C10.6702 27.5724 10.8025 27.776 10.8927 28.0104C10.9829 28.2448 11.0285 28.5034 11.0258 28.7652C11.0232 29.0271 10.9722 29.2847 10.8772 29.5172C10.7822 29.7497 10.6458 29.9506 10.4791 30.1034L9.70828 30.8101C9.48293 31.0168 9.2124 31.1266 8.93585 31.1238C8.6593 31.1209 8.39108 31.0056 8.17002 30.7943L4.7411 27.5211L1.9603 24.8652C1.74747 24.6617 1.57544 24.3965 1.45818 24.0913C1.34092 23.7861 1.28176 23.4494 1.28548 23.1086L1.49285 2.91072C1.49713 2.51083 1.58785 2.11969 1.75495 1.78064C1.92205 1.4416 2.15901 1.16789 2.43958 0.989832C2.72014 0.811777 3.03336 0.73633 3.34453 0.771855C3.6557 0.807379 3.95266 0.952485 4.20252 1.1911L5.00877 1.95976L14.1626 10.6983L22.7436 18.8838L25.6817 21.6887L26.7706 22.7271C26.9836 22.9301 27.1559 23.1949 27.2734 23.4999C27.3909 23.8048 27.4503 24.1414 27.4468 24.482C27.4433 24.8227 27.377 25.158 27.2532 25.4605C27.1295 25.7629 26.9518 26.0241 26.7347 26.2227L19.5263 32.8225L17.8077 34.396L14.8126 37.1411L13.7961 38.073L5.0903 46.0342C4.92374 46.1864 4.78736 46.3866 4.6922 46.6184C4.59704 46.8502 4.54577 47.1071 4.54256 47.3684L4.41911 59.3927C4.41839 59.5455 4.45055 59.6954 4.51205 59.826C4.57355 59.9566 4.66204 60.0628 4.76781 60.1331C4.87359 60.2034 4.99258 60.2349 5.11177 60.2244C5.23096 60.2138 5.34574 60.1615 5.44356 60.0732L21.0302 45.7903C21.1971 45.6375 21.3337 45.4367 21.4288 45.2042C21.5239 44.9717 21.5749 44.714 21.5776 44.4521C21.5803 44.1902 21.5346 43.9315 21.4443 43.697C21.354 43.4626 21.2215 43.259 21.0578 43.1029L19.18 41.3094C19.0163 41.1532 18.8839 40.9495 18.7936 40.715C18.7032 40.4805 18.6576 40.2217 18.6603 39.9597C18.6629 39.6977 18.7139 39.44 18.809 39.2073C18.9041 38.9747 19.0407 38.7738 19.2076 38.621L19.9819 37.9154C20.2072 37.7088 20.4778 37.5989 20.7543 37.6018C21.0309 37.6046 21.2991 37.72 21.5202 37.9312L26.564 42.7597C26.7769 42.9628 26.949 43.2275 27.0664 43.5324C27.1838 43.8372 27.2432 44.1736 27.2397 44.5141C27.2362 44.8546 27.1699 45.1897 27.0463 45.4921C26.9226 45.7945 26.7451 46.0556 26.5281 46.2543L3.51983 67.3447C3.26472 67.5772 2.96463 67.7152 2.65281 67.7434C2.341 67.7715 2.02962 67.6887 1.75316 67.5041C1.4767 67.3196 1.24596 67.0404 1.08648 66.6976C0.927007 66.3549 0.845024 65.9618 0.849615 65.562V65.562Z" fill="url(#paint0_linear_180_171)"/>
<defs>
<linearGradient id="paint0_linear_180_171" x1="22.1931" y1="15.4793" x2="-16.0541" y2="40.0035" gradientUnits="userSpaceOnUse">
<stop stop-color="#AA14F0"/>
<stop offset="1" stop-color="#29ABE2"/>
</linearGradient>
</defs>
</svg>
