<svg width="25" height="25" viewBox="0 0 25 25" fill="none" xmlns="http://www.w3.org/2000/svg">
<path fill-rule="evenodd" clip-rule="evenodd" d="M24.27 12.5C24.27 19.1275 18.8975 24.5 12.27 24.5C5.64261 24.5 0.27002 19.1275 0.27002 12.5C0.27002 5.87259 5.64261 0.5 12.27 0.5C18.8975 0.5 24.27 5.87259 24.27 12.5ZM19.27 12.5C19.27 16.366 16.136 19.5 12.27 19.5C8.40402 19.5 5.27002 16.366 5.27002 12.5C5.27002 8.634 8.40402 5.5 12.27 5.5C16.136 5.5 19.27 8.634 19.27 12.5ZM11.3534 10.25C10.617 10.25 10.02 10.8469 10.02 11.5833V13.4167C10.02 14.1531 10.617 14.75 11.3534 14.75H13.1867C13.9231 14.75 14.52 14.1531 14.52 13.4167V11.5833C14.52 10.8469 13.9231 10.25 13.1867 10.25H11.3534Z" fill="#2D65F8"/>
</svg>
